<?xml version="1.0" standalone="no"?>
<!DOCTYPE svg PUBLIC "-//W3C//DTD SVG 20010904//EN"
 "http://www.w3.org/TR/2001/REC-SVG-20010904/DTD/svg10.dtd">
<svg version="1.0" xmlns="http://www.w3.org/2000/svg"
 width="512.000000pt" height="512.000000pt" viewBox="0 0 512.000000 512.000000"
 preserveAspectRatio="xMidYMid meet">
<metadata>
Created by potrace 1.11, written by Peter Selinger 2001-2013
</metadata>
<g transform="translate(0.000000,512.000000) scale(0.100000,-0.100000)"
fill="#000000" stroke="none">
<path d="M0 2560 l0 -2560 2560 0 2560 0 0 2560 0 2560 -2560 0 -2560 0 0
-2560z m1115 1673 c22 -11 52 -34 66 -50 27 -28 759 -1098 759 -1108 0 -3
-215 -5 -478 -5 l-478 0 -377 559 c-207 308 -377 569 -377 580 0 11 6 23 13
28 17 11 283 20 582 19 236 -1 252 -2 290 -23z m3743 -9 c16 -11 23 -23 20
-37 -3 -12 -175 -268 -384 -569 l-378 -548 -474 0 c-376 0 -472 3 -466 13 4 6
70 104 148 217 457 667 468 686 411 712 -21 9 -34 6 -90 -21 -36 -18 -75 -46
-89 -64 -20 -28 -153 -223 -494 -729 l-85 -128 -370 0 -369 0 28 48 c36 61
443 687 501 771 69 100 69 161 -1 161 -48 0 -112 -46 -200 -143 -123 -135
-121 -135 -462 -143 l-281 -7 -22 22 c-17 17 -21 29 -16 49 9 37 223 339 265
373 19 16 47 33 63 37 15 4 633 6 1374 4 1207 -2 1349 -4 1371 -18z m-4169
-1250 c16 -20 21 -41 21 -85 l0 -59 -54 0 -55 0 -3 52 c-2 30 -8 53 -15 56
-10 3 -13 -14 -13 -61 l0 -65 64 -51 c35 -28 67 -58 70 -67 3 -9 6 -54 6 -100
0 -77 -2 -87 -25 -109 -22 -22 -32 -25 -105 -25 -107 0 -120 12 -120 110 l0
70 55 0 55 0 0 -61 c0 -42 4 -59 12 -57 8 3 11 26 9 69 -2 59 -5 66 -34 89
-18 13 -47 39 -66 57 l-33 33 4 101 c5 125 8 129 124 129 77 0 84 -2 103 -26z
m2679 10 c19 -13 22 -24 22 -85 l0 -69 -55 0 -55 0 0 56 c0 74 -24 69 -28 -6
l-3 -53 71 -66 70 -66 0 -97 c0 -130 -7 -138 -124 -138 -79 0 -86 2 -105 26
-16 21 -21 41 -21 89 0 34 2 64 4 66 2 2 27 2 55 1 l50 -4 3 -56 c2 -33 8 -57
16 -60 9 -3 12 14 12 61 l0 65 -52 43 c-79 64 -78 61 -78 175 0 127 6 134 120
134 52 0 82 -5 98 -16z m-3117 -136 c12 -133 14 -139 20 -88 4 30 11 94 14
143 l7 87 54 0 c47 0 54 -3 54 -19 0 -11 -13 -125 -30 -253 -16 -128 -30 -236
-30 -240 0 -5 -34 -8 -75 -8 -56 0 -75 3 -75 13 0 8 -13 114 -30 237 -16 123
-30 234 -30 247 0 21 4 23 54 23 l53 0 14 -142z m749 112 c0 -30 -1 -30 -55
-30 l-55 0 0 -80 0 -80 55 0 c54 0 55 0 55 -30 0 -30 -1 -30 -55 -30 l-55 0 0
-90 0 -90 55 0 c54 0 55 0 55 -30 l0 -30 -110 0 -110 0 0 260 0 260 110 0 110
0 0 -30z m229 -112 c18 -79 37 -152 41 -162 4 -13 19 33 45 142 l39 162 68 0
68 0 0 -260 0 -260 -55 0 -55 0 0 123 c-1 131 -9 138 -30 22 -6 -38 -16 -87
-21 -108 -10 -38 -10 -38 -57 -35 l-46 3 -22 108 c-12 59 -24 110 -28 114 -3
3 -6 -46 -6 -110 l0 -117 -55 0 -55 0 0 260 0 260 68 0 67 0 34 -142z m541
112 c0 -27 -3 -30 -30 -30 l-30 0 0 -230 0 -230 -55 0 -55 0 0 230 0 230 -30
0 c-32 0 -47 18 -36 45 4 12 27 15 121 15 l115 0 0 -30z m270 0 c0 -30 -1 -30
-55 -30 l-55 0 0 -80 0 -80 55 0 c54 0 55 0 55 -30 0 -30 -1 -30 -55 -30 l-55
0 0 -90 0 -89 58 -3 c54 -3 57 -4 60 -30 l3 -28 -115 0 -116 0 0 260 0 260
110 0 110 0 0 -30z m284 -2 c8 -51 46 -430 46 -460 0 -27 -2 -28 -50 -28 -55
0 -57 3 -62 90 -3 38 -6 45 -25 48 -21 3 -23 -1 -23 -45 0 -85 -6 -93 -61 -93
-59 0 -57 -27 -24 282 14 128 25 234 25 236 0 1 38 2 85 2 l84 0 5 -32z m245
-5 c5 -21 22 -91 37 -155 15 -65 31 -118 34 -118 4 0 19 54 34 121 16 67 32
136 38 155 l9 34 64 0 65 0 0 -260 0 -260 -55 0 -55 0 -1 123 -1 122 -25 -122
-26 -123 -47 0 -47 0 -24 118 -24 117 -3 -117 -3 -118 -54 0 -55 0 0 260 0
260 65 0 64 0 10 -37z m1011 -223 l0 -260 -55 0 -55 0 0 260 0 260 55 0 55 0
0 -260z m290 238 c18 -20 20 -33 18 -113 -3 -90 -3 -90 -34 -106 l-32 -15 32
-10 31 -9 3 -105 c4 -137 1 -140 -139 -140 l-99 0 0 260 0 260 100 0 c90 0
101 -2 120 -22z m318 -5 c-3 -26 -7 -28 -55 -31 l-53 -3 0 -79 0 -79 53 -3
c48 -3 52 -5 52 -28 0 -23 -4 -25 -52 -28 l-53 -3 0 -90 0 -89 55 0 c54 0 55
0 55 -30 l0 -30 -110 0 -110 0 0 260 0 260 111 0 110 0 -3 -27z m292 7 c18
-18 20 -33 20 -131 0 -86 -4 -117 -17 -139 -17 -29 -13 -53 33 -212 5 -16 -2
-18 -54 -18 l-60 0 -12 68 c-21 110 -29 115 -29 20 l-1 -88 -55 0 -55 0 0 260
0 260 105 0 c92 0 108 -3 125 -20z m200 -240 l0 -260 -55 0 -55 0 0 260 0 260
55 0 55 0 0 -260z m284 228 c8 -51 46 -430 46 -460 0 -27 -2 -28 -50 -28 -55
0 -57 3 -62 90 -3 38 -6 45 -25 48 -21 3 -23 -1 -23 -45 0 -85 -6 -93 -61 -93
-60 0 -58 -24 -24 284 14 126 25 230 25 232 0 2 38 4 85 4 l84 0 5 -32z
m-2509 -644 c75 -128 103 -125 202 19 l33 47 470 0 c258 0 470 -3 470 -6 0 -3
-235 -346 -522 -761 -311 -451 -530 -759 -544 -765 -28 -13 -72 3 -102 35 -24
27 -990 1461 -998 1482 -5 13 52 15 473 15 l480 0 38 -66z"/>
<path d="M2226 2809 c-11 -106 -8 -149 9 -149 14 0 15 14 9 103 -4 56 -8 103
-9 105 -1 1 -5 -25 -9 -59z"/>
<path d="M3760 2844 c0 -54 4 -83 10 -79 6 3 10 42 10 86 0 46 -4 79 -10 79
-6 0 -10 -35 -10 -86z"/>
<path d="M3760 2620 c0 -53 4 -90 10 -90 6 0 10 37 10 90 0 53 -4 90 -10 90
-6 0 -10 -37 -10 -90z"/>
<path d="M4360 2825 c0 -81 3 -106 13 -102 8 2 12 32 12 102 0 70 -4 100 -12
103 -10 3 -13 -22 -13 -103z"/>
<path d="M4867 2818 c-12 -98 -9 -158 9 -158 14 0 15 13 9 103 -4 56 -9 103
-10 105 -1 1 -5 -21 -8 -50z"/>
</g>
</svg>
